<svg xmlns="http://www.w3.org/2000/svg" width="100%" viewBox="0 0 600 400" role="img">
<defs>
  <pattern id="pattern-0" patternUnits="userSpaceOnUse" width="8" height="8">
    <rect width="8" height="8" fill="var(--pattern-fill, white)"/>
    <path d="M-1,1 l2,-2 M0,8 l8,-8 M7,9 l2,-2" stroke="var(--pattern-stroke, black)" stroke-width="1"/>
  </pattern>
  <pattern id="pattern-1" patternUnits="userSpaceOnUse" width="8" height="8">
    <rect width="8" height="8" fill="var(--pattern-fill, white)"/>
    <circle cx="4" cy="4" r="1" fill="var(--pattern-stroke, black)"/>
  </pattern>
  <pattern id="pattern-2" patternUnits="userSpaceOnUse" width="8" height="8">
    <rect width="8" height="8" fill="var(--pattern-fill, white)"/>
    <line x1="0" y1="4" x2="8" y2="4" stroke="var(--pattern-stroke, black)" stroke-width="1"/>
  </pattern>
  <pattern id="pattern-3" patternUnits="userSpaceOnUse" width="8" height="8">
    <rect width="8" height="8" fill="var(--pattern-fill, white)"/>
    <line x1="4" y1="0" x2="4" y2="8" stroke="var(--pattern-stroke, black)" stroke-width="1"/>
  </pattern>
</defs>
  <rect x="60" y="30.666666666666668" width="349.2537313432836" height="85.33333333333334" fill="url(#pattern-0)" stroke="black" stroke-width="1" class="data-element data-index-0" data-label="Q1" data-value="45" aria-label="label: Q1, value: 45"/>
  <text x="50" y="77.33333333333334" font-size="10" text-anchor="end" fill="black" class="label">Q1</text>
  <rect x="60" y="137.33333333333334" width="520" height="85.33333333333334" fill="url(#pattern-1)" stroke="black" stroke-width="1" class="data-element data-index-1" data-label="Q2" data-value="67" aria-label="label: Q2, value: 67"/>
  <text x="50" y="184" font-size="10" text-anchor="end" fill="black" class="label">Q2</text>
  <rect x="60" y="244" width="403.5820895522388" height="85.33333333333334" fill="url(#pattern-2)" stroke="black" stroke-width="1" class="data-element data-index-2" data-label="Q3" data-value="52" aria-label="label: Q3, value: 52"/>
  <text x="50" y="290.6666666666667" font-size="10" text-anchor="end" fill="black" class="label">Q3</text>
  <line x1="60" y1="20" x2="60" y2="340" stroke="black" stroke-width="1" class="axis"/>
  <line x1="60" y1="340" x2="580" y2="340" stroke="black" stroke-width="1" class="axis"/>
</svg>