<svg xmlns="http://www.w3.org/2000/svg" width="100%" viewBox="0 0 600 400" role="img">
<defs>
  <pattern id="pattern-0" patternUnits="userSpaceOnUse" width="8" height="8">
    <rect width="8" height="8" fill="var(--pattern-fill, white)"/>
    <path d="M-1,1 l2,-2 M0,8 l8,-8 M7,9 l2,-2" stroke="var(--pattern-stroke, black)" stroke-width="1"/>
  </pattern>
  <pattern id="pattern-1" patternUnits="userSpaceOnUse" width="8" height="8">
    <rect width="8" height="8" fill="var(--pattern-fill, white)"/>
    <circle cx="4" cy="4" r="1" fill="var(--pattern-stroke, black)"/>
  </pattern>
  <pattern id="pattern-2" patternUnits="userSpaceOnUse" width="8" height="8">
    <rect width="8" height="8" fill="var(--pattern-fill, white)"/>
    <line x1="0" y1="4" x2="8" y2="4" stroke="var(--pattern-stroke, black)" stroke-width="1"/>
  </pattern>
  <pattern id="pattern-3" patternUnits="userSpaceOnUse" width="8" height="8">
    <rect width="8" height="8" fill="var(--pattern-fill, white)"/>
    <line x1="4" y1="0" x2="4" y2="8" stroke="var(--pattern-stroke, black)" stroke-width="1"/>
  </pattern>
</defs>
  <rect x="86" y="125.07462686567163" width="208" height="214.92537313432837" fill="url(#pattern-0)" class="data-element data-index-0" data-label="Q1" data-value="45" aria-label="label: Q1, value: 45"/>
  <text x="190" y="360" font-size="10" text-anchor="middle" class="label">Q1</text>
  <rect x="346" y="20" width="208" height="320" fill="url(#pattern-1)" class="data-element data-index-1" data-label="Q2" data-value="67" aria-label="label: Q2, value: 67"/>
  <text x="450" y="360" font-size="10" text-anchor="middle" class="label">Q2</text>
  <line x1="60" y1="20" x2="60" y2="340" class="axis"/>
  <line x1="60" y1="340" x2="580" y2="340" class="axis"/>
</svg>