<svg xmlns="http://www.w3.org/2000/svg" width="100%" viewBox="0 0 600 400" role="img">
<defs>
  <pattern id="pattern-0" patternUnits="userSpaceOnUse" width="8" height="8">
    <rect width="8" height="8" fill="var(--pattern-fill, white)"/>
    <path d="M-1,1 l2,-2 M0,8 l8,-8 M7,9 l2,-2" stroke="var(--pattern-stroke, black)" stroke-width="1"/>
  </pattern>
  <pattern id="pattern-1" patternUnits="userSpaceOnUse" width="8" height="8">
    <rect width="8" height="8" fill="var(--pattern-fill, white)"/>
    <circle cx="4" cy="4" r="1" fill="var(--pattern-stroke, black)"/>
  </pattern>
  <pattern id="pattern-2" patternUnits="userSpaceOnUse" width="8" height="8">
    <rect width="8" height="8" fill="var(--pattern-fill, white)"/>
    <line x1="0" y1="4" x2="8" y2="4" stroke="var(--pattern-stroke, black)" stroke-width="1"/>
  </pattern>
  <pattern id="pattern-3" patternUnits="userSpaceOnUse" width="8" height="8">
    <rect width="8" height="8" fill="var(--pattern-fill, white)"/>
    <line x1="4" y1="0" x2="4" y2="8" stroke="var(--pattern-stroke, black)" stroke-width="1"/>
  </pattern>
</defs>
  <path d="M 414.12678195541844 237.08203932499367 A 120 120 0 0 0 300 80 L 300 128 A 72 72 0 0 1 368.47606917325106 222.2492235949962 Z" fill="url(#pattern-0)" stroke="black" stroke-width="1" class="data-element data-index-0" data-label="A" data-value="30" data-percentage="30.0" aria-label="label: A, value: 30, percentage: 30.0"/>
  <text x="437.5328890437411" y="100.07650711027956" font-size="10" text-anchor="middle" fill="black" class="label">A</text>
  <path d="M 185.87321804458156 162.91796067500627 A 120 120 0 0 0 414.12678195541844 237.08203932499367 L 368.47606917325106 222.2492235949962 A 72 72 0 0 1 231.52393082674894 177.75077640500376 Z" fill="url(#pattern-1)" stroke="black" stroke-width="1" class="data-element data-index-1" data-label="B" data-value="50" data-percentage="50.0" aria-label="label: B, value: 50, percentage: 50.0"/>
  <text x="247.46711095625895" y="361.6796077701761" font-size="10" text-anchor="middle" fill="black" class="label">B</text>
  <path d="M 300 80 A 120 120 0 0 0 185.87321804458156 162.91796067500627 L 231.52393082674894 177.75077640500376 A 72 72 0 0 1 300 128 Z" fill="url(#pattern-2)" stroke="black" stroke-width="1" class="data-element data-index-2" data-label="C" data-value="20" data-percentage="20.0" aria-label="label: C, value: 20, percentage: 20.0"/>
  <text x="200.07650711027955" y="62.46711095625895" font-size="10" text-anchor="middle" fill="black" class="label">C</text>
</svg>