<svg xmlns="http://www.w3.org/2000/svg" width="100%" viewBox="0 0 600 400" role="img">
<defs>
  <pattern id="pattern-0" patternUnits="userSpaceOnUse" width="8" height="8">
    <rect width="8" height="8" fill="var(--pattern-fill, white)"/>
    <path d="M-1,1 l2,-2 M0,8 l8,-8 M7,9 l2,-2" stroke="var(--pattern-stroke, black)" stroke-width="1"/>
  </pattern>
  <pattern id="pattern-1" patternUnits="userSpaceOnUse" width="8" height="8">
    <rect width="8" height="8" fill="var(--pattern-fill, white)"/>
    <circle cx="4" cy="4" r="1" fill="var(--pattern-stroke, black)"/>
  </pattern>
  <pattern id="pattern-2" patternUnits="userSpaceOnUse" width="8" height="8">
    <rect width="8" height="8" fill="var(--pattern-fill, white)"/>
    <line x1="0" y1="4" x2="8" y2="4" stroke="var(--pattern-stroke, black)" stroke-width="1"/>
  </pattern>
  <pattern id="pattern-3" patternUnits="userSpaceOnUse" width="8" height="8">
    <rect width="8" height="8" fill="var(--pattern-fill, white)"/>
    <line x1="4" y1="0" x2="4" y2="8" stroke="var(--pattern-stroke, black)" stroke-width="1"/>
  </pattern>
</defs>
  <path d="M 384.8528137423857 284.8528137423857 A 120 120 0 0 0 300 80 L 300 128 A 72 72 0 0 1 350.91168824543144 250.91168824543144 Z" fill="url(#pattern-0)" class="data-element data-index-0" data-label="A" data-value="30" data-percentage="37.5" aria-label="label: A, value: 30, percentage: 37.5"/>
  <text x="457.05952052691873" y="134.94381649793473" font-size="10" text-anchor="middle" class="label">A</text>
  <path d="M 300 80 A 120 120 0 1 0 384.8528137423857 284.8528137423857 L 350.91168824543144 250.91168824543144 A 72 72 0 1 1 300 128 Z" fill="url(#pattern-1)" class="data-element data-index-1" data-label="B" data-value="50" data-percentage="62.5" aria-label="label: B, value: 50, percentage: 62.5"/>
  <text x="142.94047947308127" y="265.05618350206527" font-size="10" text-anchor="middle" class="label">B</text>
</svg>